M48
; DRILL file {KiCad 9.0.6} date 2026-01-04T02:45:36-0800
; FORMAT={-:-/ absolute / inch / decimal}
; #@! TF.CreationDate,2026-01-04T02:45:36-08:00
; #@! TF.GenerationSoftware,Kicad,Pcbnew,9.0.6
; #@! TF.FileFunction,Plated,1,2,PTH
FMAT,2
INCH
; #@! TA.AperFunction,Plated,PTH,ComponentDrill
T1C0.0100
; #@! TA.AperFunction,Plated,PTH,ViaDrill
T2C0.0118
; #@! TA.AperFunction,Plated,PTH,ComponentDrill
T3C0.0236
; #@! TA.AperFunction,Plated,PTH,ComponentDrill
T4C0.0394
%
G90
G05
T1
X6.0113Y-3.8386
X6.0113Y-3.878
X6.0507Y-3.8386
X6.0507Y-3.878
T2
X5.2067Y-3.5138
X5.2067Y-3.5531
X5.2461Y-3.5138
X5.2461Y-3.5531
X5.3346Y-3.3366
X5.3346Y-3.5531
X5.4331Y-3.5276
X5.4646Y-3.5276
X5.5118Y-3.7992
X5.5315Y-3.6811
X5.5315Y-3.7106
X5.5354Y-3.626
X5.6102Y-4.1831
X5.626Y-3.5512
X5.6575Y-4.1831
X5.689Y-3.752
X5.7047Y-4.1831
X5.7087Y-3.4449
X5.7087Y-3.9862
X5.7185Y-3.752
X5.7283Y-3.4252
X5.748Y-3.4055
X5.748Y-3.752
X5.748Y-3.9862
X5.752Y-4.1831
X5.7677Y-3.3858
X5.7776Y-3.752
X5.7874Y-3.3661
X5.7992Y-4.1831
X5.8071Y-3.752
X5.8465Y-4.1831
X5.8563Y-3.5335
X5.876Y-3.5138
X5.8957Y-3.4941
X5.929Y-3.8635
X5.935Y-3.7894
X6.0181Y-4.1016
X6.0181Y-4.1339
X6.0605Y-3.7598
X6.0925Y-3.9567
X6.1319Y-3.937
X6.1811Y-3.8878
X6.248Y-3.6181
X6.248Y-3.7441
X6.25Y-3.878
X6.252Y-3.6811
T4
X5.6972Y-3.8189
X5.7972Y-3.8189
T3
G00X5.5583Y-3.928
M15
G01X5.5583Y-3.9713
M16
G05
G00X5.5583Y-4.0984
M15
G01X5.5583Y-4.1299
M16
G05
G00X5.8984Y-3.928
M15
G01X5.8984Y-3.9713
M16
G05
G00X5.8984Y-4.0984
M15
G01X5.8984Y-4.1299
M16
G05
M30
