%TF.GenerationSoftware,KiCad,Pcbnew,9.0.6*%
%TF.CreationDate,2026-01-04T02:45:32-08:00*%
%TF.ProjectId,flashlight adapter,666c6173-686c-4696-9768-742061646170,rev?*%
%TF.SameCoordinates,Original*%
%TF.FileFunction,Paste,Top*%
%TF.FilePolarity,Positive*%
%FSLAX46Y46*%
G04 Gerber Fmt 4.6, Leading zero omitted, Abs format (unit mm)*
G04 Created by KiCad (PCBNEW 9.0.6) date 2026-01-04 02:45:32*
%MOMM*%
%LPD*%
G01*
G04 APERTURE LIST*
G04 Aperture macros list*
%AMRoundRect*
0 Rectangle with rounded corners*
0 $1 Rounding radius*
0 $2 $3 $4 $5 $6 $7 $8 $9 X,Y pos of 4 corners*
0 Add a 4 corners polygon primitive as box body*
4,1,4,$2,$3,$4,$5,$6,$7,$8,$9,$2,$3,0*
0 Add four circle primitives for the rounded corners*
1,1,$1+$1,$2,$3*
1,1,$1+$1,$4,$5*
1,1,$1+$1,$6,$7*
1,1,$1+$1,$8,$9*
0 Add four rect primitives between the rounded corners*
20,1,$1+$1,$2,$3,$4,$5,0*
20,1,$1+$1,$4,$5,$6,$7,0*
20,1,$1+$1,$6,$7,$8,$9,0*
20,1,$1+$1,$8,$9,$2,$3,0*%
G04 Aperture macros list end*
%ADD10RoundRect,0.172500X0.172500X0.172500X-0.172500X0.172500X-0.172500X-0.172500X0.172500X-0.172500X0*%
%ADD11RoundRect,0.062500X0.375000X0.062500X-0.375000X0.062500X-0.375000X-0.062500X0.375000X-0.062500X0*%
%ADD12RoundRect,0.062500X0.062500X0.375000X-0.062500X0.375000X-0.062500X-0.375000X0.062500X-0.375000X0*%
%ADD13RoundRect,0.050000X-0.557199X-0.494904X0.707199X0.235096X0.557199X0.494904X-0.707199X-0.235096X0*%
%ADD14R,0.300000X1.150000*%
%ADD15R,0.600000X1.150000*%
%ADD16RoundRect,0.450000X1.838478X0.353553X0.353553X1.838478X-1.838478X-0.353553X-0.353553X-1.838478X0*%
%ADD17RoundRect,0.237500X-0.287500X-0.237500X0.287500X-0.237500X0.287500X0.237500X-0.287500X0.237500X0*%
%ADD18RoundRect,0.237500X-0.250000X-0.237500X0.250000X-0.237500X0.250000X0.237500X-0.250000X0.237500X0*%
%ADD19RoundRect,0.162500X0.617500X0.162500X-0.617500X0.162500X-0.617500X-0.162500X0.617500X-0.162500X0*%
%ADD20RoundRect,0.237500X-0.237500X0.300000X-0.237500X-0.300000X0.237500X-0.300000X0.237500X0.300000X0*%
%ADD21RoundRect,0.237500X0.237500X-0.300000X0.237500X0.300000X-0.237500X0.300000X-0.237500X-0.300000X0*%
%ADD22RoundRect,0.237500X-0.237500X0.250000X-0.237500X-0.250000X0.237500X-0.250000X0.237500X0.250000X0*%
%ADD23RoundRect,0.237500X0.237500X-0.250000X0.237500X0.250000X-0.237500X0.250000X-0.237500X-0.250000X0*%
%ADD24RoundRect,0.237500X0.080681X-0.335256X0.330681X0.097756X-0.080681X0.335256X-0.330681X-0.097756X0*%
%ADD25RoundRect,0.237500X-0.097756X-0.330681X0.335256X-0.080681X0.097756X0.330681X-0.335256X0.080681X0*%
%ADD26RoundRect,0.162500X-0.837500X-0.162500X0.837500X-0.162500X0.837500X0.162500X-0.837500X0.162500X0*%
%ADD27RoundRect,0.250000X0.300000X-0.300000X0.300000X0.300000X-0.300000X0.300000X-0.300000X-0.300000X0*%
%ADD28RoundRect,0.250001X0.462499X0.849999X-0.462499X0.849999X-0.462499X-0.849999X0.462499X-0.849999X0*%
%ADD29RoundRect,0.250000X-0.337500X-0.475000X0.337500X-0.475000X0.337500X0.475000X-0.337500X0.475000X0*%
%ADD30RoundRect,0.600000X-1.400000X-1.400000X1.400000X-1.400000X1.400000X1.400000X-1.400000X1.400000X0*%
G04 APERTURE END LIST*
D10*
%TO.C,U1*%
X153587500Y-98400000D03*
X153587500Y-97600000D03*
X152787500Y-98400000D03*
X152787500Y-97600000D03*
D11*
X154625000Y-98750000D03*
X154625000Y-98250000D03*
X154625000Y-97750000D03*
X154625000Y-97250000D03*
D12*
X153937500Y-96562500D03*
X153437500Y-96562500D03*
X152937500Y-96562500D03*
X152437500Y-96562500D03*
D11*
X151750000Y-97250000D03*
X151750000Y-97750000D03*
X151750000Y-98250000D03*
X151750000Y-98750000D03*
D12*
X152437500Y-99437500D03*
X152937500Y-99437500D03*
X153437500Y-99437500D03*
X153937500Y-99437500D03*
%TD*%
D13*
%TO.C,Q1*%
X136268347Y-83345625D03*
X136593347Y-83908542D03*
X136918347Y-84471458D03*
X137243347Y-85034375D03*
X142231653Y-82154375D03*
X141906653Y-81591458D03*
X141581653Y-81028542D03*
X141256653Y-80465625D03*
%TD*%
D14*
%TO.C,J1*%
X143750000Y-99745000D03*
X144750000Y-99745000D03*
X146250000Y-99745000D03*
X147250000Y-99745000D03*
D15*
X147900000Y-99745000D03*
X148700000Y-99745000D03*
D14*
X146750000Y-99745000D03*
X145750000Y-99745000D03*
X145250000Y-99745000D03*
X144250000Y-99745000D03*
D15*
X143100000Y-99745000D03*
X142300000Y-99745000D03*
%TD*%
D16*
%TO.C,BT-1*%
X147500000Y-88000000D03*
%TD*%
D17*
%TO.C,D2*%
X152893750Y-91000000D03*
X151143750Y-91000000D03*
%TD*%
%TO.C,D1*%
X152893750Y-92750000D03*
X151143750Y-92750000D03*
%TD*%
D18*
%TO.C,R7*%
X156431250Y-91000000D03*
X154606250Y-91000000D03*
%TD*%
%TO.C,R6*%
X154606250Y-92750000D03*
X156431250Y-92750000D03*
%TD*%
D19*
%TO.C,U2*%
X141250000Y-88650000D03*
X141250000Y-87700000D03*
X141250000Y-86750000D03*
X138550000Y-86750000D03*
X138550000Y-87700000D03*
X138550000Y-88650000D03*
%TD*%
D18*
%TO.C,R11*%
X136837500Y-91000000D03*
X138662500Y-91000000D03*
%TD*%
%TO.C,R10*%
X132337500Y-92500000D03*
X134162500Y-92500000D03*
%TD*%
D20*
%TO.C,C4*%
X136540000Y-88862500D03*
X136540000Y-87137500D03*
%TD*%
D21*
%TO.C,C1*%
X141750000Y-92137500D03*
X141750000Y-93862500D03*
%TD*%
%TO.C,C2*%
X149500000Y-95887500D03*
X149500000Y-97612500D03*
%TD*%
D20*
%TO.C,C3*%
X156500000Y-97362500D03*
X156500000Y-95637500D03*
%TD*%
%TO.C,C5*%
X141750000Y-97362500D03*
X141750000Y-95637500D03*
%TD*%
D22*
%TO.C,R4*%
X154000000Y-104162500D03*
X154000000Y-102337500D03*
%TD*%
%TO.C,R2*%
X151750000Y-104412500D03*
X151750000Y-102587500D03*
%TD*%
D23*
%TO.C,R8*%
X134790000Y-87087500D03*
X134790000Y-88912500D03*
%TD*%
D24*
%TO.C,R3*%
X158206250Y-99459752D03*
X157293750Y-101040248D03*
%TD*%
D25*
%TO.C,R9*%
X144040249Y-83543750D03*
X142459751Y-84456250D03*
%TD*%
D26*
%TO.C,U3*%
X139500000Y-95500000D03*
X139500000Y-97400000D03*
X136080000Y-97400000D03*
X136080000Y-96450000D03*
X136080000Y-95500000D03*
%TD*%
D27*
%TO.C,D3*%
X133250000Y-98149999D03*
X133250000Y-95350001D03*
%TD*%
D28*
%TO.C,L1*%
X138912500Y-93250000D03*
X136587500Y-93250000D03*
%TD*%
D29*
%TO.C,C6*%
X137212500Y-99500000D03*
X139287500Y-99500000D03*
%TD*%
D30*
%TO.C,9V+1*%
X138000000Y-102750000D03*
%TD*%
M02*
