%TF.GenerationSoftware,KiCad,Pcbnew,9.0.6*%
%TF.CreationDate,2026-01-04T02:45:32-08:00*%
%TF.ProjectId,flashlight adapter,666c6173-686c-4696-9768-742061646170,rev?*%
%TF.SameCoordinates,Original*%
%TF.FileFunction,Legend,Top*%
%TF.FilePolarity,Positive*%
%FSLAX46Y46*%
G04 Gerber Fmt 4.6, Leading zero omitted, Abs format (unit mm)*
G04 Created by KiCad (PCBNEW 9.0.6) date 2026-01-04 02:45:32*
%MOMM*%
%LPD*%
G01*
G04 APERTURE LIST*
%ADD10C,0.150000*%
%ADD11C,0.100000*%
%ADD12C,0.120000*%
%ADD13C,0.127000*%
%ADD14C,0.200000*%
G04 APERTURE END LIST*
D10*
X152425595Y-100284819D02*
X152425595Y-101094342D01*
X152425595Y-101094342D02*
X152473214Y-101189580D01*
X152473214Y-101189580D02*
X152520833Y-101237200D01*
X152520833Y-101237200D02*
X152616071Y-101284819D01*
X152616071Y-101284819D02*
X152806547Y-101284819D01*
X152806547Y-101284819D02*
X152901785Y-101237200D01*
X152901785Y-101237200D02*
X152949404Y-101189580D01*
X152949404Y-101189580D02*
X152997023Y-101094342D01*
X152997023Y-101094342D02*
X152997023Y-100284819D01*
X153997023Y-101284819D02*
X153425595Y-101284819D01*
X153711309Y-101284819D02*
X153711309Y-100284819D01*
X153711309Y-100284819D02*
X153616071Y-100427676D01*
X153616071Y-100427676D02*
X153520833Y-100522914D01*
X153520833Y-100522914D02*
X153425595Y-100570533D01*
X143692549Y-80273982D02*
X143586261Y-80280362D01*
X143586261Y-80280362D02*
X143456164Y-80245502D01*
X143456164Y-80245502D02*
X143261017Y-80193213D01*
X143261017Y-80193213D02*
X143154729Y-80199593D01*
X143154729Y-80199593D02*
X143072250Y-80247212D01*
X143232537Y-80429599D02*
X143126249Y-80435978D01*
X143126249Y-80435978D02*
X142996152Y-80401119D01*
X142996152Y-80401119D02*
X142859674Y-80259971D01*
X142859674Y-80259971D02*
X142693008Y-79971296D01*
X142693008Y-79971296D02*
X142639009Y-79782529D01*
X142639009Y-79782529D02*
X142673868Y-79652432D01*
X142673868Y-79652432D02*
X142732537Y-79563573D01*
X142732537Y-79563573D02*
X142897495Y-79468335D01*
X142897495Y-79468335D02*
X143003783Y-79461955D01*
X143003783Y-79461955D02*
X143133880Y-79496815D01*
X143133880Y-79496815D02*
X143270358Y-79637963D01*
X143270358Y-79637963D02*
X143437024Y-79926638D01*
X143437024Y-79926638D02*
X143491023Y-80115405D01*
X143491023Y-80115405D02*
X143456164Y-80245502D01*
X143456164Y-80245502D02*
X143397495Y-80334361D01*
X143397495Y-80334361D02*
X143232537Y-80429599D01*
X144428477Y-79739122D02*
X143933606Y-80024837D01*
X144181041Y-79881980D02*
X143681041Y-79015954D01*
X143681041Y-79015954D02*
X143669991Y-79187291D01*
X143669991Y-79187291D02*
X143635132Y-79317389D01*
X143635132Y-79317389D02*
X143576463Y-79406247D01*
X145166666Y-103954819D02*
X145166666Y-104669104D01*
X145166666Y-104669104D02*
X145119047Y-104811961D01*
X145119047Y-104811961D02*
X145023809Y-104907200D01*
X145023809Y-104907200D02*
X144880952Y-104954819D01*
X144880952Y-104954819D02*
X144785714Y-104954819D01*
X146166666Y-104954819D02*
X145595238Y-104954819D01*
X145880952Y-104954819D02*
X145880952Y-103954819D01*
X145880952Y-103954819D02*
X145785714Y-104097676D01*
X145785714Y-104097676D02*
X145690476Y-104192914D01*
X145690476Y-104192914D02*
X145595238Y-104240533D01*
D11*
X145345238Y-90933609D02*
X145488095Y-90981228D01*
X145488095Y-90981228D02*
X145535714Y-91028847D01*
X145535714Y-91028847D02*
X145583333Y-91124085D01*
X145583333Y-91124085D02*
X145583333Y-91266942D01*
X145583333Y-91266942D02*
X145535714Y-91362180D01*
X145535714Y-91362180D02*
X145488095Y-91409800D01*
X145488095Y-91409800D02*
X145392857Y-91457419D01*
X145392857Y-91457419D02*
X145011905Y-91457419D01*
X145011905Y-91457419D02*
X145011905Y-90457419D01*
X145011905Y-90457419D02*
X145345238Y-90457419D01*
X145345238Y-90457419D02*
X145440476Y-90505038D01*
X145440476Y-90505038D02*
X145488095Y-90552657D01*
X145488095Y-90552657D02*
X145535714Y-90647895D01*
X145535714Y-90647895D02*
X145535714Y-90743133D01*
X145535714Y-90743133D02*
X145488095Y-90838371D01*
X145488095Y-90838371D02*
X145440476Y-90885990D01*
X145440476Y-90885990D02*
X145345238Y-90933609D01*
X145345238Y-90933609D02*
X145011905Y-90933609D01*
X145869048Y-90457419D02*
X146440476Y-90457419D01*
X146154762Y-91457419D02*
X146154762Y-90457419D01*
X146773810Y-91076466D02*
X147535715Y-91076466D01*
X148535714Y-91457419D02*
X147964286Y-91457419D01*
X148250000Y-91457419D02*
X148250000Y-90457419D01*
X148250000Y-90457419D02*
X148154762Y-90600276D01*
X148154762Y-90600276D02*
X148059524Y-90695514D01*
X148059524Y-90695514D02*
X147964286Y-90743133D01*
D10*
X151280655Y-89954819D02*
X151280655Y-88954819D01*
X151280655Y-88954819D02*
X151518750Y-88954819D01*
X151518750Y-88954819D02*
X151661607Y-89002438D01*
X151661607Y-89002438D02*
X151756845Y-89097676D01*
X151756845Y-89097676D02*
X151804464Y-89192914D01*
X151804464Y-89192914D02*
X151852083Y-89383390D01*
X151852083Y-89383390D02*
X151852083Y-89526247D01*
X151852083Y-89526247D02*
X151804464Y-89716723D01*
X151804464Y-89716723D02*
X151756845Y-89811961D01*
X151756845Y-89811961D02*
X151661607Y-89907200D01*
X151661607Y-89907200D02*
X151518750Y-89954819D01*
X151518750Y-89954819D02*
X151280655Y-89954819D01*
X152233036Y-89050057D02*
X152280655Y-89002438D01*
X152280655Y-89002438D02*
X152375893Y-88954819D01*
X152375893Y-88954819D02*
X152613988Y-88954819D01*
X152613988Y-88954819D02*
X152709226Y-89002438D01*
X152709226Y-89002438D02*
X152756845Y-89050057D01*
X152756845Y-89050057D02*
X152804464Y-89145295D01*
X152804464Y-89145295D02*
X152804464Y-89240533D01*
X152804464Y-89240533D02*
X152756845Y-89383390D01*
X152756845Y-89383390D02*
X152185417Y-89954819D01*
X152185417Y-89954819D02*
X152804464Y-89954819D01*
X151280655Y-94704819D02*
X151280655Y-93704819D01*
X151280655Y-93704819D02*
X151518750Y-93704819D01*
X151518750Y-93704819D02*
X151661607Y-93752438D01*
X151661607Y-93752438D02*
X151756845Y-93847676D01*
X151756845Y-93847676D02*
X151804464Y-93942914D01*
X151804464Y-93942914D02*
X151852083Y-94133390D01*
X151852083Y-94133390D02*
X151852083Y-94276247D01*
X151852083Y-94276247D02*
X151804464Y-94466723D01*
X151804464Y-94466723D02*
X151756845Y-94561961D01*
X151756845Y-94561961D02*
X151661607Y-94657200D01*
X151661607Y-94657200D02*
X151518750Y-94704819D01*
X151518750Y-94704819D02*
X151280655Y-94704819D01*
X152804464Y-94704819D02*
X152233036Y-94704819D01*
X152518750Y-94704819D02*
X152518750Y-93704819D01*
X152518750Y-93704819D02*
X152423512Y-93847676D01*
X152423512Y-93847676D02*
X152328274Y-93942914D01*
X152328274Y-93942914D02*
X152233036Y-93990533D01*
X157883333Y-91566033D02*
X157650000Y-91232700D01*
X157483333Y-91566033D02*
X157483333Y-90866033D01*
X157483333Y-90866033D02*
X157750000Y-90866033D01*
X157750000Y-90866033D02*
X157816667Y-90899366D01*
X157816667Y-90899366D02*
X157850000Y-90932700D01*
X157850000Y-90932700D02*
X157883333Y-90999366D01*
X157883333Y-90999366D02*
X157883333Y-91099366D01*
X157883333Y-91099366D02*
X157850000Y-91166033D01*
X157850000Y-91166033D02*
X157816667Y-91199366D01*
X157816667Y-91199366D02*
X157750000Y-91232700D01*
X157750000Y-91232700D02*
X157483333Y-91232700D01*
X158116667Y-90866033D02*
X158583333Y-90866033D01*
X158583333Y-90866033D02*
X158283333Y-91566033D01*
X156152083Y-94316033D02*
X155918750Y-93982700D01*
X155752083Y-94316033D02*
X155752083Y-93616033D01*
X155752083Y-93616033D02*
X156018750Y-93616033D01*
X156018750Y-93616033D02*
X156085417Y-93649366D01*
X156085417Y-93649366D02*
X156118750Y-93682700D01*
X156118750Y-93682700D02*
X156152083Y-93749366D01*
X156152083Y-93749366D02*
X156152083Y-93849366D01*
X156152083Y-93849366D02*
X156118750Y-93916033D01*
X156118750Y-93916033D02*
X156085417Y-93949366D01*
X156085417Y-93949366D02*
X156018750Y-93982700D01*
X156018750Y-93982700D02*
X155752083Y-93982700D01*
X156752083Y-93616033D02*
X156618750Y-93616033D01*
X156618750Y-93616033D02*
X156552083Y-93649366D01*
X156552083Y-93649366D02*
X156518750Y-93682700D01*
X156518750Y-93682700D02*
X156452083Y-93782700D01*
X156452083Y-93782700D02*
X156418750Y-93916033D01*
X156418750Y-93916033D02*
X156418750Y-94182700D01*
X156418750Y-94182700D02*
X156452083Y-94249366D01*
X156452083Y-94249366D02*
X156485417Y-94282700D01*
X156485417Y-94282700D02*
X156552083Y-94316033D01*
X156552083Y-94316033D02*
X156685417Y-94316033D01*
X156685417Y-94316033D02*
X156752083Y-94282700D01*
X156752083Y-94282700D02*
X156785417Y-94249366D01*
X156785417Y-94249366D02*
X156818750Y-94182700D01*
X156818750Y-94182700D02*
X156818750Y-94016033D01*
X156818750Y-94016033D02*
X156785417Y-93949366D01*
X156785417Y-93949366D02*
X156752083Y-93916033D01*
X156752083Y-93916033D02*
X156685417Y-93882700D01*
X156685417Y-93882700D02*
X156552083Y-93882700D01*
X156552083Y-93882700D02*
X156485417Y-93916033D01*
X156485417Y-93916033D02*
X156452083Y-93949366D01*
X156452083Y-93949366D02*
X156418750Y-94016033D01*
X139988095Y-89954819D02*
X139988095Y-90764342D01*
X139988095Y-90764342D02*
X140035714Y-90859580D01*
X140035714Y-90859580D02*
X140083333Y-90907200D01*
X140083333Y-90907200D02*
X140178571Y-90954819D01*
X140178571Y-90954819D02*
X140369047Y-90954819D01*
X140369047Y-90954819D02*
X140464285Y-90907200D01*
X140464285Y-90907200D02*
X140511904Y-90859580D01*
X140511904Y-90859580D02*
X140559523Y-90764342D01*
X140559523Y-90764342D02*
X140559523Y-89954819D01*
X140988095Y-90050057D02*
X141035714Y-90002438D01*
X141035714Y-90002438D02*
X141130952Y-89954819D01*
X141130952Y-89954819D02*
X141369047Y-89954819D01*
X141369047Y-89954819D02*
X141464285Y-90002438D01*
X141464285Y-90002438D02*
X141511904Y-90050057D01*
X141511904Y-90050057D02*
X141559523Y-90145295D01*
X141559523Y-90145295D02*
X141559523Y-90240533D01*
X141559523Y-90240533D02*
X141511904Y-90383390D01*
X141511904Y-90383390D02*
X140940476Y-90954819D01*
X140940476Y-90954819D02*
X141559523Y-90954819D01*
X134549999Y-91416033D02*
X134316666Y-91082700D01*
X134149999Y-91416033D02*
X134149999Y-90716033D01*
X134149999Y-90716033D02*
X134416666Y-90716033D01*
X134416666Y-90716033D02*
X134483333Y-90749366D01*
X134483333Y-90749366D02*
X134516666Y-90782700D01*
X134516666Y-90782700D02*
X134549999Y-90849366D01*
X134549999Y-90849366D02*
X134549999Y-90949366D01*
X134549999Y-90949366D02*
X134516666Y-91016033D01*
X134516666Y-91016033D02*
X134483333Y-91049366D01*
X134483333Y-91049366D02*
X134416666Y-91082700D01*
X134416666Y-91082700D02*
X134149999Y-91082700D01*
X135216666Y-91416033D02*
X134816666Y-91416033D01*
X135016666Y-91416033D02*
X135016666Y-90716033D01*
X135016666Y-90716033D02*
X134949999Y-90816033D01*
X134949999Y-90816033D02*
X134883333Y-90882700D01*
X134883333Y-90882700D02*
X134816666Y-90916033D01*
X135883333Y-91416033D02*
X135483333Y-91416033D01*
X135683333Y-91416033D02*
X135683333Y-90716033D01*
X135683333Y-90716033D02*
X135616666Y-90816033D01*
X135616666Y-90816033D02*
X135550000Y-90882700D01*
X135550000Y-90882700D02*
X135483333Y-90916033D01*
X131799999Y-91566033D02*
X131566666Y-91232700D01*
X131399999Y-91566033D02*
X131399999Y-90866033D01*
X131399999Y-90866033D02*
X131666666Y-90866033D01*
X131666666Y-90866033D02*
X131733333Y-90899366D01*
X131733333Y-90899366D02*
X131766666Y-90932700D01*
X131766666Y-90932700D02*
X131799999Y-90999366D01*
X131799999Y-90999366D02*
X131799999Y-91099366D01*
X131799999Y-91099366D02*
X131766666Y-91166033D01*
X131766666Y-91166033D02*
X131733333Y-91199366D01*
X131733333Y-91199366D02*
X131666666Y-91232700D01*
X131666666Y-91232700D02*
X131399999Y-91232700D01*
X132466666Y-91566033D02*
X132066666Y-91566033D01*
X132266666Y-91566033D02*
X132266666Y-90866033D01*
X132266666Y-90866033D02*
X132199999Y-90966033D01*
X132199999Y-90966033D02*
X132133333Y-91032700D01*
X132133333Y-91032700D02*
X132066666Y-91066033D01*
X132900000Y-90866033D02*
X132966666Y-90866033D01*
X132966666Y-90866033D02*
X133033333Y-90899366D01*
X133033333Y-90899366D02*
X133066666Y-90932700D01*
X133066666Y-90932700D02*
X133100000Y-90999366D01*
X133100000Y-90999366D02*
X133133333Y-91132700D01*
X133133333Y-91132700D02*
X133133333Y-91299366D01*
X133133333Y-91299366D02*
X133100000Y-91432700D01*
X133100000Y-91432700D02*
X133066666Y-91499366D01*
X133066666Y-91499366D02*
X133033333Y-91532700D01*
X133033333Y-91532700D02*
X132966666Y-91566033D01*
X132966666Y-91566033D02*
X132900000Y-91566033D01*
X132900000Y-91566033D02*
X132833333Y-91532700D01*
X132833333Y-91532700D02*
X132800000Y-91499366D01*
X132800000Y-91499366D02*
X132766666Y-91432700D01*
X132766666Y-91432700D02*
X132733333Y-91299366D01*
X132733333Y-91299366D02*
X132733333Y-91132700D01*
X132733333Y-91132700D02*
X132766666Y-90999366D01*
X132766666Y-90999366D02*
X132800000Y-90932700D01*
X132800000Y-90932700D02*
X132833333Y-90899366D01*
X132833333Y-90899366D02*
X132900000Y-90866033D01*
X135383333Y-85999366D02*
X135350000Y-86032700D01*
X135350000Y-86032700D02*
X135250000Y-86066033D01*
X135250000Y-86066033D02*
X135183333Y-86066033D01*
X135183333Y-86066033D02*
X135083333Y-86032700D01*
X135083333Y-86032700D02*
X135016667Y-85966033D01*
X135016667Y-85966033D02*
X134983333Y-85899366D01*
X134983333Y-85899366D02*
X134950000Y-85766033D01*
X134950000Y-85766033D02*
X134950000Y-85666033D01*
X134950000Y-85666033D02*
X134983333Y-85532700D01*
X134983333Y-85532700D02*
X135016667Y-85466033D01*
X135016667Y-85466033D02*
X135083333Y-85399366D01*
X135083333Y-85399366D02*
X135183333Y-85366033D01*
X135183333Y-85366033D02*
X135250000Y-85366033D01*
X135250000Y-85366033D02*
X135350000Y-85399366D01*
X135350000Y-85399366D02*
X135383333Y-85432700D01*
X135983333Y-85599366D02*
X135983333Y-86066033D01*
X135816667Y-85332700D02*
X135650000Y-85832700D01*
X135650000Y-85832700D02*
X136083333Y-85832700D01*
X143249366Y-93116666D02*
X143282700Y-93149999D01*
X143282700Y-93149999D02*
X143316033Y-93249999D01*
X143316033Y-93249999D02*
X143316033Y-93316666D01*
X143316033Y-93316666D02*
X143282700Y-93416666D01*
X143282700Y-93416666D02*
X143216033Y-93483333D01*
X143216033Y-93483333D02*
X143149366Y-93516666D01*
X143149366Y-93516666D02*
X143016033Y-93549999D01*
X143016033Y-93549999D02*
X142916033Y-93549999D01*
X142916033Y-93549999D02*
X142782700Y-93516666D01*
X142782700Y-93516666D02*
X142716033Y-93483333D01*
X142716033Y-93483333D02*
X142649366Y-93416666D01*
X142649366Y-93416666D02*
X142616033Y-93316666D01*
X142616033Y-93316666D02*
X142616033Y-93249999D01*
X142616033Y-93249999D02*
X142649366Y-93149999D01*
X142649366Y-93149999D02*
X142682700Y-93116666D01*
X143316033Y-92449999D02*
X143316033Y-92849999D01*
X143316033Y-92649999D02*
X142616033Y-92649999D01*
X142616033Y-92649999D02*
X142716033Y-92716666D01*
X142716033Y-92716666D02*
X142782700Y-92783333D01*
X142782700Y-92783333D02*
X142816033Y-92849999D01*
X149133333Y-94749366D02*
X149100000Y-94782700D01*
X149100000Y-94782700D02*
X149000000Y-94816033D01*
X149000000Y-94816033D02*
X148933333Y-94816033D01*
X148933333Y-94816033D02*
X148833333Y-94782700D01*
X148833333Y-94782700D02*
X148766667Y-94716033D01*
X148766667Y-94716033D02*
X148733333Y-94649366D01*
X148733333Y-94649366D02*
X148700000Y-94516033D01*
X148700000Y-94516033D02*
X148700000Y-94416033D01*
X148700000Y-94416033D02*
X148733333Y-94282700D01*
X148733333Y-94282700D02*
X148766667Y-94216033D01*
X148766667Y-94216033D02*
X148833333Y-94149366D01*
X148833333Y-94149366D02*
X148933333Y-94116033D01*
X148933333Y-94116033D02*
X149000000Y-94116033D01*
X149000000Y-94116033D02*
X149100000Y-94149366D01*
X149100000Y-94149366D02*
X149133333Y-94182700D01*
X149400000Y-94182700D02*
X149433333Y-94149366D01*
X149433333Y-94149366D02*
X149500000Y-94116033D01*
X149500000Y-94116033D02*
X149666667Y-94116033D01*
X149666667Y-94116033D02*
X149733333Y-94149366D01*
X149733333Y-94149366D02*
X149766667Y-94182700D01*
X149766667Y-94182700D02*
X149800000Y-94249366D01*
X149800000Y-94249366D02*
X149800000Y-94316033D01*
X149800000Y-94316033D02*
X149766667Y-94416033D01*
X149766667Y-94416033D02*
X149366667Y-94816033D01*
X149366667Y-94816033D02*
X149800000Y-94816033D01*
X157813333Y-96749366D02*
X157780000Y-96782700D01*
X157780000Y-96782700D02*
X157680000Y-96816033D01*
X157680000Y-96816033D02*
X157613333Y-96816033D01*
X157613333Y-96816033D02*
X157513333Y-96782700D01*
X157513333Y-96782700D02*
X157446667Y-96716033D01*
X157446667Y-96716033D02*
X157413333Y-96649366D01*
X157413333Y-96649366D02*
X157380000Y-96516033D01*
X157380000Y-96516033D02*
X157380000Y-96416033D01*
X157380000Y-96416033D02*
X157413333Y-96282700D01*
X157413333Y-96282700D02*
X157446667Y-96216033D01*
X157446667Y-96216033D02*
X157513333Y-96149366D01*
X157513333Y-96149366D02*
X157613333Y-96116033D01*
X157613333Y-96116033D02*
X157680000Y-96116033D01*
X157680000Y-96116033D02*
X157780000Y-96149366D01*
X157780000Y-96149366D02*
X157813333Y-96182700D01*
X158046667Y-96116033D02*
X158480000Y-96116033D01*
X158480000Y-96116033D02*
X158246667Y-96382700D01*
X158246667Y-96382700D02*
X158346667Y-96382700D01*
X158346667Y-96382700D02*
X158413333Y-96416033D01*
X158413333Y-96416033D02*
X158446667Y-96449366D01*
X158446667Y-96449366D02*
X158480000Y-96516033D01*
X158480000Y-96516033D02*
X158480000Y-96682700D01*
X158480000Y-96682700D02*
X158446667Y-96749366D01*
X158446667Y-96749366D02*
X158413333Y-96782700D01*
X158413333Y-96782700D02*
X158346667Y-96816033D01*
X158346667Y-96816033D02*
X158146667Y-96816033D01*
X158146667Y-96816033D02*
X158080000Y-96782700D01*
X158080000Y-96782700D02*
X158046667Y-96749366D01*
X143429366Y-96616666D02*
X143462700Y-96649999D01*
X143462700Y-96649999D02*
X143496033Y-96749999D01*
X143496033Y-96749999D02*
X143496033Y-96816666D01*
X143496033Y-96816666D02*
X143462700Y-96916666D01*
X143462700Y-96916666D02*
X143396033Y-96983333D01*
X143396033Y-96983333D02*
X143329366Y-97016666D01*
X143329366Y-97016666D02*
X143196033Y-97049999D01*
X143196033Y-97049999D02*
X143096033Y-97049999D01*
X143096033Y-97049999D02*
X142962700Y-97016666D01*
X142962700Y-97016666D02*
X142896033Y-96983333D01*
X142896033Y-96983333D02*
X142829366Y-96916666D01*
X142829366Y-96916666D02*
X142796033Y-96816666D01*
X142796033Y-96816666D02*
X142796033Y-96749999D01*
X142796033Y-96749999D02*
X142829366Y-96649999D01*
X142829366Y-96649999D02*
X142862700Y-96616666D01*
X142796033Y-95983333D02*
X142796033Y-96316666D01*
X142796033Y-96316666D02*
X143129366Y-96349999D01*
X143129366Y-96349999D02*
X143096033Y-96316666D01*
X143096033Y-96316666D02*
X143062700Y-96249999D01*
X143062700Y-96249999D02*
X143062700Y-96083333D01*
X143062700Y-96083333D02*
X143096033Y-96016666D01*
X143096033Y-96016666D02*
X143129366Y-95983333D01*
X143129366Y-95983333D02*
X143196033Y-95949999D01*
X143196033Y-95949999D02*
X143362700Y-95949999D01*
X143362700Y-95949999D02*
X143429366Y-95983333D01*
X143429366Y-95983333D02*
X143462700Y-96016666D01*
X143462700Y-96016666D02*
X143496033Y-96083333D01*
X143496033Y-96083333D02*
X143496033Y-96249999D01*
X143496033Y-96249999D02*
X143462700Y-96316666D01*
X143462700Y-96316666D02*
X143429366Y-96349999D01*
X155313333Y-103066033D02*
X155080000Y-102732700D01*
X154913333Y-103066033D02*
X154913333Y-102366033D01*
X154913333Y-102366033D02*
X155180000Y-102366033D01*
X155180000Y-102366033D02*
X155246667Y-102399366D01*
X155246667Y-102399366D02*
X155280000Y-102432700D01*
X155280000Y-102432700D02*
X155313333Y-102499366D01*
X155313333Y-102499366D02*
X155313333Y-102599366D01*
X155313333Y-102599366D02*
X155280000Y-102666033D01*
X155280000Y-102666033D02*
X155246667Y-102699366D01*
X155246667Y-102699366D02*
X155180000Y-102732700D01*
X155180000Y-102732700D02*
X154913333Y-102732700D01*
X155913333Y-102599366D02*
X155913333Y-103066033D01*
X155746667Y-102332700D02*
X155580000Y-102832700D01*
X155580000Y-102832700D02*
X156013333Y-102832700D01*
X151633333Y-106066033D02*
X151400000Y-105732700D01*
X151233333Y-106066033D02*
X151233333Y-105366033D01*
X151233333Y-105366033D02*
X151500000Y-105366033D01*
X151500000Y-105366033D02*
X151566667Y-105399366D01*
X151566667Y-105399366D02*
X151600000Y-105432700D01*
X151600000Y-105432700D02*
X151633333Y-105499366D01*
X151633333Y-105499366D02*
X151633333Y-105599366D01*
X151633333Y-105599366D02*
X151600000Y-105666033D01*
X151600000Y-105666033D02*
X151566667Y-105699366D01*
X151566667Y-105699366D02*
X151500000Y-105732700D01*
X151500000Y-105732700D02*
X151233333Y-105732700D01*
X151900000Y-105432700D02*
X151933333Y-105399366D01*
X151933333Y-105399366D02*
X152000000Y-105366033D01*
X152000000Y-105366033D02*
X152166667Y-105366033D01*
X152166667Y-105366033D02*
X152233333Y-105399366D01*
X152233333Y-105399366D02*
X152266667Y-105432700D01*
X152266667Y-105432700D02*
X152300000Y-105499366D01*
X152300000Y-105499366D02*
X152300000Y-105566033D01*
X152300000Y-105566033D02*
X152266667Y-105666033D01*
X152266667Y-105666033D02*
X151866667Y-106066033D01*
X151866667Y-106066033D02*
X152300000Y-106066033D01*
X133676033Y-88116666D02*
X133342700Y-88349999D01*
X133676033Y-88516666D02*
X132976033Y-88516666D01*
X132976033Y-88516666D02*
X132976033Y-88249999D01*
X132976033Y-88249999D02*
X133009366Y-88183333D01*
X133009366Y-88183333D02*
X133042700Y-88149999D01*
X133042700Y-88149999D02*
X133109366Y-88116666D01*
X133109366Y-88116666D02*
X133209366Y-88116666D01*
X133209366Y-88116666D02*
X133276033Y-88149999D01*
X133276033Y-88149999D02*
X133309366Y-88183333D01*
X133309366Y-88183333D02*
X133342700Y-88249999D01*
X133342700Y-88249999D02*
X133342700Y-88516666D01*
X133276033Y-87716666D02*
X133242700Y-87783333D01*
X133242700Y-87783333D02*
X133209366Y-87816666D01*
X133209366Y-87816666D02*
X133142700Y-87849999D01*
X133142700Y-87849999D02*
X133109366Y-87849999D01*
X133109366Y-87849999D02*
X133042700Y-87816666D01*
X133042700Y-87816666D02*
X133009366Y-87783333D01*
X133009366Y-87783333D02*
X132976033Y-87716666D01*
X132976033Y-87716666D02*
X132976033Y-87583333D01*
X132976033Y-87583333D02*
X133009366Y-87516666D01*
X133009366Y-87516666D02*
X133042700Y-87483333D01*
X133042700Y-87483333D02*
X133109366Y-87449999D01*
X133109366Y-87449999D02*
X133142700Y-87449999D01*
X133142700Y-87449999D02*
X133209366Y-87483333D01*
X133209366Y-87483333D02*
X133242700Y-87516666D01*
X133242700Y-87516666D02*
X133276033Y-87583333D01*
X133276033Y-87583333D02*
X133276033Y-87716666D01*
X133276033Y-87716666D02*
X133309366Y-87783333D01*
X133309366Y-87783333D02*
X133342700Y-87816666D01*
X133342700Y-87816666D02*
X133409366Y-87849999D01*
X133409366Y-87849999D02*
X133542700Y-87849999D01*
X133542700Y-87849999D02*
X133609366Y-87816666D01*
X133609366Y-87816666D02*
X133642700Y-87783333D01*
X133642700Y-87783333D02*
X133676033Y-87716666D01*
X133676033Y-87716666D02*
X133676033Y-87583333D01*
X133676033Y-87583333D02*
X133642700Y-87516666D01*
X133642700Y-87516666D02*
X133609366Y-87483333D01*
X133609366Y-87483333D02*
X133542700Y-87449999D01*
X133542700Y-87449999D02*
X133409366Y-87449999D01*
X133409366Y-87449999D02*
X133342700Y-87483333D01*
X133342700Y-87483333D02*
X133309366Y-87516666D01*
X133309366Y-87516666D02*
X133276033Y-87583333D01*
X155490947Y-101215359D02*
X155455541Y-100810017D01*
X155144537Y-101015359D02*
X155494537Y-100409141D01*
X155494537Y-100409141D02*
X155725477Y-100542475D01*
X155725477Y-100542475D02*
X155766545Y-100604676D01*
X155766545Y-100604676D02*
X155778746Y-100650210D01*
X155778746Y-100650210D02*
X155774280Y-100724611D01*
X155774280Y-100724611D02*
X155724280Y-100811214D01*
X155724280Y-100811214D02*
X155662079Y-100852282D01*
X155662079Y-100852282D02*
X155616545Y-100864483D01*
X155616545Y-100864483D02*
X155542143Y-100860017D01*
X155542143Y-100860017D02*
X155311203Y-100726684D01*
X156043019Y-100725808D02*
X156418297Y-100942475D01*
X156418297Y-100942475D02*
X156082891Y-101056748D01*
X156082891Y-101056748D02*
X156169494Y-101106748D01*
X156169494Y-101106748D02*
X156210562Y-101168949D01*
X156210562Y-101168949D02*
X156222763Y-101214483D01*
X156222763Y-101214483D02*
X156218297Y-101288885D01*
X156218297Y-101288885D02*
X156134964Y-101433223D01*
X156134964Y-101433223D02*
X156072763Y-101474291D01*
X156072763Y-101474291D02*
X156027229Y-101486492D01*
X156027229Y-101486492D02*
X155952827Y-101482026D01*
X155952827Y-101482026D02*
X155779622Y-101382026D01*
X155779622Y-101382026D02*
X155738554Y-101319825D01*
X155738554Y-101319825D02*
X155726353Y-101274291D01*
X144867973Y-82956980D02*
X145039982Y-82588241D01*
X144667973Y-82610570D02*
X145274191Y-82260570D01*
X145274191Y-82260570D02*
X145407525Y-82491510D01*
X145407525Y-82491510D02*
X145411990Y-82565912D01*
X145411990Y-82565912D02*
X145399790Y-82611446D01*
X145399790Y-82611446D02*
X145358721Y-82673647D01*
X145358721Y-82673647D02*
X145272119Y-82723647D01*
X145272119Y-82723647D02*
X145197717Y-82728113D01*
X145197717Y-82728113D02*
X145152183Y-82715912D01*
X145152183Y-82715912D02*
X145089982Y-82674843D01*
X145089982Y-82674843D02*
X144956649Y-82443903D01*
X145034640Y-83245655D02*
X145101307Y-83361125D01*
X145101307Y-83361125D02*
X145163508Y-83402194D01*
X145163508Y-83402194D02*
X145209042Y-83414395D01*
X145209042Y-83414395D02*
X145328978Y-83422130D01*
X145328978Y-83422130D02*
X145461114Y-83384330D01*
X145461114Y-83384330D02*
X145692055Y-83250997D01*
X145692055Y-83250997D02*
X145733123Y-83188796D01*
X145733123Y-83188796D02*
X145745324Y-83143262D01*
X145745324Y-83143262D02*
X145740858Y-83068860D01*
X145740858Y-83068860D02*
X145674191Y-82953390D01*
X145674191Y-82953390D02*
X145611990Y-82912322D01*
X145611990Y-82912322D02*
X145566456Y-82900121D01*
X145566456Y-82900121D02*
X145492055Y-82904587D01*
X145492055Y-82904587D02*
X145347717Y-82987920D01*
X145347717Y-82987920D02*
X145306649Y-83050121D01*
X145306649Y-83050121D02*
X145294448Y-83095655D01*
X145294448Y-83095655D02*
X145298914Y-83170057D01*
X145298914Y-83170057D02*
X145365580Y-83285527D01*
X145365580Y-83285527D02*
X145427781Y-83326595D01*
X145427781Y-83326595D02*
X145473315Y-83338796D01*
X145473315Y-83338796D02*
X145547717Y-83334330D01*
X134919428Y-98332715D02*
X134919428Y-98949572D01*
X134919428Y-98949572D02*
X134955714Y-99022144D01*
X134955714Y-99022144D02*
X134992000Y-99058430D01*
X134992000Y-99058430D02*
X135064571Y-99094715D01*
X135064571Y-99094715D02*
X135209714Y-99094715D01*
X135209714Y-99094715D02*
X135282285Y-99058430D01*
X135282285Y-99058430D02*
X135318571Y-99022144D01*
X135318571Y-99022144D02*
X135354857Y-98949572D01*
X135354857Y-98949572D02*
X135354857Y-98332715D01*
X135645143Y-98332715D02*
X136116857Y-98332715D01*
X136116857Y-98332715D02*
X135862857Y-98623001D01*
X135862857Y-98623001D02*
X135971714Y-98623001D01*
X135971714Y-98623001D02*
X136044286Y-98659287D01*
X136044286Y-98659287D02*
X136080571Y-98695572D01*
X136080571Y-98695572D02*
X136116857Y-98768144D01*
X136116857Y-98768144D02*
X136116857Y-98949572D01*
X136116857Y-98949572D02*
X136080571Y-99022144D01*
X136080571Y-99022144D02*
X136044286Y-99058430D01*
X136044286Y-99058430D02*
X135971714Y-99094715D01*
X135971714Y-99094715D02*
X135754000Y-99094715D01*
X135754000Y-99094715D02*
X135681428Y-99058430D01*
X135681428Y-99058430D02*
X135645143Y-99022144D01*
X131011905Y-94454819D02*
X131011905Y-93454819D01*
X131011905Y-93454819D02*
X131250000Y-93454819D01*
X131250000Y-93454819D02*
X131392857Y-93502438D01*
X131392857Y-93502438D02*
X131488095Y-93597676D01*
X131488095Y-93597676D02*
X131535714Y-93692914D01*
X131535714Y-93692914D02*
X131583333Y-93883390D01*
X131583333Y-93883390D02*
X131583333Y-94026247D01*
X131583333Y-94026247D02*
X131535714Y-94216723D01*
X131535714Y-94216723D02*
X131488095Y-94311961D01*
X131488095Y-94311961D02*
X131392857Y-94407200D01*
X131392857Y-94407200D02*
X131250000Y-94454819D01*
X131250000Y-94454819D02*
X131011905Y-94454819D01*
X131916667Y-93454819D02*
X132535714Y-93454819D01*
X132535714Y-93454819D02*
X132202381Y-93835771D01*
X132202381Y-93835771D02*
X132345238Y-93835771D01*
X132345238Y-93835771D02*
X132440476Y-93883390D01*
X132440476Y-93883390D02*
X132488095Y-93931009D01*
X132488095Y-93931009D02*
X132535714Y-94026247D01*
X132535714Y-94026247D02*
X132535714Y-94264342D01*
X132535714Y-94264342D02*
X132488095Y-94359580D01*
X132488095Y-94359580D02*
X132440476Y-94407200D01*
X132440476Y-94407200D02*
X132345238Y-94454819D01*
X132345238Y-94454819D02*
X132059524Y-94454819D01*
X132059524Y-94454819D02*
X131964286Y-94407200D01*
X131964286Y-94407200D02*
X131916667Y-94359580D01*
X134583333Y-94454819D02*
X134107143Y-94454819D01*
X134107143Y-94454819D02*
X134107143Y-93454819D01*
X135440476Y-94454819D02*
X134869048Y-94454819D01*
X135154762Y-94454819D02*
X135154762Y-93454819D01*
X135154762Y-93454819D02*
X135059524Y-93597676D01*
X135059524Y-93597676D02*
X134964286Y-93692914D01*
X134964286Y-93692914D02*
X134869048Y-93740533D01*
X135383333Y-100249366D02*
X135350000Y-100282700D01*
X135350000Y-100282700D02*
X135250000Y-100316033D01*
X135250000Y-100316033D02*
X135183333Y-100316033D01*
X135183333Y-100316033D02*
X135083333Y-100282700D01*
X135083333Y-100282700D02*
X135016667Y-100216033D01*
X135016667Y-100216033D02*
X134983333Y-100149366D01*
X134983333Y-100149366D02*
X134950000Y-100016033D01*
X134950000Y-100016033D02*
X134950000Y-99916033D01*
X134950000Y-99916033D02*
X134983333Y-99782700D01*
X134983333Y-99782700D02*
X135016667Y-99716033D01*
X135016667Y-99716033D02*
X135083333Y-99649366D01*
X135083333Y-99649366D02*
X135183333Y-99616033D01*
X135183333Y-99616033D02*
X135250000Y-99616033D01*
X135250000Y-99616033D02*
X135350000Y-99649366D01*
X135350000Y-99649366D02*
X135383333Y-99682700D01*
X135983333Y-99616033D02*
X135850000Y-99616033D01*
X135850000Y-99616033D02*
X135783333Y-99649366D01*
X135783333Y-99649366D02*
X135750000Y-99682700D01*
X135750000Y-99682700D02*
X135683333Y-99782700D01*
X135683333Y-99782700D02*
X135650000Y-99916033D01*
X135650000Y-99916033D02*
X135650000Y-100182700D01*
X135650000Y-100182700D02*
X135683333Y-100249366D01*
X135683333Y-100249366D02*
X135716667Y-100282700D01*
X135716667Y-100282700D02*
X135783333Y-100316033D01*
X135783333Y-100316033D02*
X135916667Y-100316033D01*
X135916667Y-100316033D02*
X135983333Y-100282700D01*
X135983333Y-100282700D02*
X136016667Y-100249366D01*
X136016667Y-100249366D02*
X136050000Y-100182700D01*
X136050000Y-100182700D02*
X136050000Y-100016033D01*
X136050000Y-100016033D02*
X136016667Y-99949366D01*
X136016667Y-99949366D02*
X135983333Y-99916033D01*
X135983333Y-99916033D02*
X135916667Y-99882700D01*
X135916667Y-99882700D02*
X135783333Y-99882700D01*
X135783333Y-99882700D02*
X135716667Y-99916033D01*
X135716667Y-99916033D02*
X135683333Y-99949366D01*
X135683333Y-99949366D02*
X135650000Y-100016033D01*
D11*
X132664372Y-100211261D02*
X132799059Y-100345948D01*
X132799059Y-100345948D02*
X132900075Y-100379619D01*
X132900075Y-100379619D02*
X132967418Y-100379619D01*
X132967418Y-100379619D02*
X133135777Y-100345948D01*
X133135777Y-100345948D02*
X133304136Y-100244932D01*
X133304136Y-100244932D02*
X133573510Y-99975558D01*
X133573510Y-99975558D02*
X133607181Y-99874543D01*
X133607181Y-99874543D02*
X133607181Y-99807200D01*
X133607181Y-99807200D02*
X133573510Y-99706184D01*
X133573510Y-99706184D02*
X133438823Y-99571497D01*
X133438823Y-99571497D02*
X133337807Y-99537826D01*
X133337807Y-99537826D02*
X133270464Y-99537826D01*
X133270464Y-99537826D02*
X133169449Y-99571497D01*
X133169449Y-99571497D02*
X133001090Y-99739856D01*
X133001090Y-99739856D02*
X132967418Y-99840871D01*
X132967418Y-99840871D02*
X132967418Y-99908215D01*
X132967418Y-99908215D02*
X133001090Y-100009230D01*
X133001090Y-100009230D02*
X133135777Y-100143917D01*
X133135777Y-100143917D02*
X133236792Y-100177589D01*
X133236792Y-100177589D02*
X133304136Y-100177589D01*
X133304136Y-100177589D02*
X133405151Y-100143917D01*
X133910227Y-100042902D02*
X133438823Y-100985711D01*
X133438823Y-100985711D02*
X134381632Y-100514306D01*
X134179601Y-101187741D02*
X134718349Y-101726490D01*
X134179601Y-101726490D02*
X134718349Y-101187741D01*
X135156082Y-102702970D02*
X134752021Y-102298909D01*
X134954051Y-102500940D02*
X135661158Y-101793833D01*
X135661158Y-101793833D02*
X135492799Y-101827505D01*
X135492799Y-101827505D02*
X135358112Y-101827505D01*
X135358112Y-101827505D02*
X135257097Y-101793833D01*
D12*
%TO.C,U1*%
X154797500Y-99610000D02*
X154322500Y-99610000D01*
X154797500Y-99135000D02*
X154797500Y-99610000D01*
X154797500Y-96390000D02*
X154797500Y-96865000D01*
X154322500Y-96390000D02*
X154797500Y-96390000D01*
X152052500Y-99610000D02*
X151577500Y-99610000D01*
X151577500Y-99610000D02*
X151577500Y-99135000D01*
X151577500Y-96865000D02*
X151577500Y-96390000D01*
X151577500Y-96390000D02*
X152052500Y-96390000D01*
X155657500Y-98990000D02*
X155327500Y-98750000D01*
X155657500Y-98510000D01*
X155657500Y-98990000D01*
G36*
X155657500Y-98990000D02*
G01*
X155327500Y-98750000D01*
X155657500Y-98510000D01*
X155657500Y-98990000D01*
G37*
D13*
%TO.C,Q1*%
X136543943Y-82562972D02*
X140441057Y-80312972D01*
X138058943Y-85187028D02*
X141956057Y-82937028D01*
D14*
X134817347Y-83779215D02*
G75*
G02*
X134617347Y-83779215I-100000J0D01*
G01*
X134617347Y-83779215D02*
G75*
G02*
X134817347Y-83779215I100000J0D01*
G01*
%TO.C,J1*%
X142350000Y-98500000D02*
G75*
G02*
X142150000Y-98500000I-100000J0D01*
G01*
X142150000Y-98500000D02*
G75*
G02*
X142350000Y-98500000I100000J0D01*
G01*
X149970000Y-107100000D02*
X149970000Y-105820000D01*
X149970000Y-101850000D02*
X149970000Y-103100000D01*
X141030000Y-105820000D02*
X141030000Y-107100000D01*
X141030000Y-101850000D02*
X141030000Y-103100000D01*
D12*
%TO.C,D2*%
X152818750Y-90265000D02*
X150358750Y-90265000D01*
X150358750Y-91735000D02*
X152818750Y-91735000D01*
X150358750Y-90265000D02*
X150358750Y-91735000D01*
%TO.C,D1*%
X152818750Y-92015000D02*
X150358750Y-92015000D01*
X150358750Y-93485000D02*
X152818750Y-93485000D01*
X150358750Y-92015000D02*
X150358750Y-93485000D01*
%TO.C,R7*%
X155264026Y-91522500D02*
X155773474Y-91522500D01*
X155264026Y-90477500D02*
X155773474Y-90477500D01*
%TO.C,R6*%
X155264026Y-92227500D02*
X155773474Y-92227500D01*
X155264026Y-93272500D02*
X155773474Y-93272500D01*
%TO.C,U2*%
X140800000Y-86090000D02*
X139000000Y-86090000D01*
X139800000Y-89310000D02*
X140600000Y-89310000D01*
X139800000Y-89310000D02*
X139000000Y-89310000D01*
X141340000Y-89590000D02*
X140860000Y-89590000D01*
X141100000Y-89260000D01*
X141340000Y-89590000D01*
G36*
X141340000Y-89590000D02*
G01*
X140860000Y-89590000D01*
X141100000Y-89260000D01*
X141340000Y-89590000D01*
G37*
%TO.C,R11*%
X137495276Y-90477500D02*
X138004724Y-90477500D01*
X137495276Y-91522500D02*
X138004724Y-91522500D01*
%TO.C,R10*%
X132995276Y-91977500D02*
X133504724Y-91977500D01*
X132995276Y-93022500D02*
X133504724Y-93022500D01*
%TO.C,C4*%
X136030000Y-87853733D02*
X136030000Y-88146267D01*
X137050000Y-87853733D02*
X137050000Y-88146267D01*
%TO.C,C1*%
X142260000Y-93146267D02*
X142260000Y-92853733D01*
X141240000Y-93146267D02*
X141240000Y-92853733D01*
%TO.C,C2*%
X150010000Y-96896267D02*
X150010000Y-96603733D01*
X148990000Y-96896267D02*
X148990000Y-96603733D01*
%TO.C,C3*%
X155990000Y-96353733D02*
X155990000Y-96646267D01*
X157010000Y-96353733D02*
X157010000Y-96646267D01*
%TO.C,C5*%
X141240000Y-96353733D02*
X141240000Y-96646267D01*
X142260000Y-96353733D02*
X142260000Y-96646267D01*
%TO.C,R4*%
X153477500Y-102995276D02*
X153477500Y-103504724D01*
X154522500Y-102995276D02*
X154522500Y-103504724D01*
%TO.C,R2*%
X151227500Y-103245276D02*
X151227500Y-103754724D01*
X152272500Y-103245276D02*
X152272500Y-103754724D01*
%TO.C,R8*%
X135312500Y-88254724D02*
X135312500Y-87745276D01*
X134267500Y-88254724D02*
X134267500Y-87745276D01*
%TO.C,R3*%
X158075137Y-100731847D02*
X158329860Y-100290652D01*
X157170140Y-100209348D02*
X157424863Y-99768153D01*
%TO.C,R9*%
X143290653Y-84579860D02*
X143731848Y-84325137D01*
X142768152Y-83674863D02*
X143209347Y-83420140D01*
%TO.C,U3*%
X136570000Y-94990000D02*
X136330000Y-94660000D01*
X136810000Y-94660000D01*
X136570000Y-94990000D01*
G36*
X136570000Y-94990000D02*
G01*
X136330000Y-94660000D01*
X136810000Y-94660000D01*
X136570000Y-94990000D01*
G37*
X137870000Y-94940000D02*
X138670000Y-94940000D01*
X137870000Y-94940000D02*
X137070000Y-94940000D01*
X136910000Y-98010000D02*
X138670000Y-98010000D01*
%TO.C,D3*%
X132250000Y-98960000D02*
X134250000Y-98960000D01*
X132250000Y-98960000D02*
X132250000Y-95100000D01*
X134250000Y-98960000D02*
X134250000Y-95100000D01*
%TO.C,L1*%
X138011252Y-94360000D02*
X137488748Y-94360000D01*
X138011252Y-92140000D02*
X137488748Y-92140000D01*
%TO.C,C6*%
X137988748Y-98765000D02*
X138511252Y-98765000D01*
X137988748Y-100235000D02*
X138511252Y-100235000D01*
%TD*%
M02*
